<svg width="28" height="27" viewBox="0 0 28 27" fill="none" xmlns="http://www.w3.org/2000/svg">
<path d="M27.5193 4.28191C27.3715 4.09754 27.1477 3.99023 26.9111 3.99023H6.18233L5.60268 1.48339C5.5211 1.1307 5.20643 0.880859 4.84378 0.880859H1.46878C1.03867 0.880859 0.689941 1.22891 0.689941 1.65823C0.689941 2.08754 1.03867 2.43554 1.46878 2.43554H4.2242L8.15882 19.4524C8.24034 19.8051 8.55506 20.055 8.91772 20.055H24.5226C24.9528 20.055 25.3014 19.7069 25.3014 19.2776C25.3014 18.8483 24.9527 18.5003 24.5226 18.5003H9.53735L8.93828 15.9092H24.5746C24.9389 15.9092 25.2545 15.6572 25.3345 15.3025L27.671 4.93818C27.7229 4.70775 27.6671 4.46633 27.5193 4.28191ZM23.9515 14.3545H8.57879L6.54182 5.54486H25.9375L23.9515 14.3545Z" fill="white"/>
<path d="M12.1131 21.0918C10.5385 21.0918 9.25732 22.3704 9.25732 23.942C9.25732 25.5136 10.5384 26.7922 12.1131 26.7922C13.6878 26.7922 14.9689 25.5136 14.9689 23.942C14.9689 22.3704 13.6878 21.0918 12.1131 21.0918ZM12.1131 25.2376C11.3973 25.2376 10.815 24.6564 10.815 23.942C10.815 23.2276 11.3973 22.6465 12.1131 22.6465C12.8289 22.6465 13.4112 23.2276 13.4112 23.942C13.4112 24.6564 12.8289 25.2376 12.1131 25.2376Z" fill="white"/>
<path d="M21.4593 21.0918C19.8846 21.0918 18.6035 22.3704 18.6035 23.942C18.6035 25.5136 19.8846 26.7922 21.4593 26.7922C23.0339 26.7922 24.3151 25.5136 24.3151 23.942C24.3151 22.3704 23.034 21.0918 21.4593 21.0918ZM21.4593 25.2376C20.7435 25.2376 20.1612 24.6564 20.1612 23.9421C20.1612 23.2277 20.7435 22.6465 21.4593 22.6465C22.1751 22.6465 22.7574 23.2277 22.7574 23.9421C22.7574 24.6564 22.1751 25.2376 21.4593 25.2376Z" fill="white"/>
</svg>
