<svg width="23" height="23" viewBox="0 0 23 23" fill="none" xmlns="http://www.w3.org/2000/svg">
<path d="M22.671 3.36107C22.5506 3.21085 22.3683 3.1234 22.1755 3.1234H5.28534L4.81303 1.08079C4.74655 0.793419 4.49016 0.589844 4.19466 0.589844H1.44466C1.09421 0.589844 0.810059 0.873442 0.810059 1.22326C0.810059 1.57307 1.09421 1.85662 1.44466 1.85662H3.68982L6.89581 15.7222C6.96224 16.0096 7.21868 16.2132 7.51417 16.2132H20.2293C20.5798 16.2132 20.8639 15.9296 20.8639 15.5798C20.8639 15.23 20.5797 14.9465 20.2293 14.9465H8.01905L7.53093 12.8352H20.2716C20.5685 12.8352 20.8256 12.6298 20.8908 12.3408L22.7946 3.8958C22.8369 3.70805 22.7915 3.51134 22.671 3.36107ZM19.7639 11.5684H7.23801L5.57826 4.39014H21.3822L19.7639 11.5684Z" fill="white"/>
<path d="M10.1177 17.0586C8.83465 17.0586 7.79077 18.1004 7.79077 19.381C7.79077 20.6616 8.83461 21.7034 10.1177 21.7034C11.4007 21.7034 12.4446 20.6616 12.4446 19.381C12.4446 18.1004 11.4008 17.0586 10.1177 17.0586ZM10.1177 20.4366C9.53449 20.4366 9.06003 19.9631 9.06003 19.381C9.06003 18.7989 9.53449 18.3254 10.1177 18.3254C10.7009 18.3254 11.1754 18.7989 11.1754 19.381C11.1754 19.9631 10.7009 20.4366 10.1177 20.4366Z" fill="white"/>
<path d="M17.7332 17.0586C16.4501 17.0586 15.4062 18.1004 15.4062 19.381C15.4062 20.6616 16.4501 21.7034 17.7332 21.7034C19.0162 21.7034 20.0601 20.6616 20.0601 19.381C20.0601 18.1004 19.0163 17.0586 17.7332 17.0586ZM17.7332 20.4366C17.15 20.4366 16.6755 19.9631 16.6755 19.381C16.6755 18.799 17.15 18.3254 17.7332 18.3254C18.3164 18.3254 18.7909 18.799 18.7909 19.381C18.7909 19.9631 18.3164 20.4366 17.7332 20.4366Z" fill="white"/>
</svg>
