<svg width="41" height="41" viewBox="0 0 41 41" fill="none" xmlns="http://www.w3.org/2000/svg">
<path d="M8.1385 9.84335C7.98225 9.89804 7.67757 10.1871 7.56819 10.3746C7.5135 10.4684 7.45882 11.0387 7.43538 11.7418L7.39632 12.9527L5.87288 12.9996C5.03694 13.023 4.34163 13.0465 4.326 13.0543C4.31038 13.0621 4.25569 13.1793 4.201 13.3199C4.05257 13.6637 4.14632 13.9449 4.47444 14.109C4.71663 14.234 5.04475 14.2418 8.66975 14.2262L12.6073 14.2027L12.7948 13.984C13.0213 13.7184 13.0369 13.4684 12.8182 13.1949L12.6619 12.9918H10.6698H8.68538V12.0152V11.0387H19.0369H29.3885L29.3729 19.1793L29.3494 27.3277L24.7948 27.3512C21.1932 27.3668 20.2401 27.3512 20.2088 27.273C19.8494 26.2262 19.5213 25.7262 18.8807 25.2418C17.8651 24.4684 16.4119 24.3512 15.2401 24.9527C14.5291 25.3121 13.8807 26.1012 13.5916 26.9371L13.4588 27.3277L11.076 27.3512L8.68538 27.3668V25.5699V23.773H9.74007C10.6932 23.773 10.8104 23.7574 10.951 23.6168C11.1854 23.3824 11.1854 22.9684 10.9432 22.7184C10.7948 22.5621 10.6854 22.5621 6.56819 22.5621H2.34163L2.15413 22.7809C1.92757 23.0465 1.91194 23.2965 2.13069 23.5699L2.28694 23.773H4.86507H7.43538V25.9918C7.43538 28.0543 7.44319 28.2184 7.58382 28.3902L7.73225 28.5777L10.6073 28.6168L13.4744 28.6559L13.5682 28.9684C13.9276 30.1871 14.9979 31.1246 16.3026 31.359C17.8729 31.648 19.6307 30.5777 20.076 29.0699L20.2088 28.6168H25.8807H31.5448L31.6463 29.0074C31.8651 29.8512 32.5916 30.6793 33.4744 31.0777C35.3182 31.9293 37.4588 31.0074 38.1307 29.0855L38.2791 28.6559L39.0135 28.6168C39.826 28.5699 40.0682 28.4684 40.3338 28.0465C40.4823 27.8121 40.4901 27.6793 40.4666 25.4918C40.4432 23.2262 40.4432 23.1793 40.2479 22.7184C40.1385 22.4605 39.2635 20.8434 38.3104 19.1246C36.4823 15.8355 36.2479 15.4996 35.6698 15.3434C35.4823 15.2887 34.451 15.2574 33.0057 15.2574H30.6463L30.6229 12.8902C30.5994 10.5621 30.5994 10.5309 30.4198 10.273C30.0448 9.7496 30.8807 9.78866 19.0213 9.79648C13.0994 9.79648 8.201 9.81991 8.1385 9.84335ZM35.451 16.6559C35.7088 16.9527 39.0057 22.9684 39.1151 23.3355C39.201 23.6324 39.2323 24.1715 39.2323 25.5465V27.3746L38.7557 27.3512L38.2869 27.3277L38.1541 26.9371C37.5604 25.1871 35.7948 24.2184 34.0369 24.6715C32.9041 24.9684 31.9432 25.898 31.6151 27.0152C31.5213 27.3277 31.5213 27.3277 31.076 27.3512L30.6385 27.3746V21.9371V16.5074H32.9823C35.1776 16.5074 35.3338 16.5152 35.451 16.6559ZM17.5057 25.9293C17.9901 26.0699 18.5369 26.5387 18.7791 27.0074C19.0057 27.4449 19.0526 28.1793 18.8885 28.6715C18.7166 29.1871 18.2948 29.6637 17.7948 29.9215C17.3104 30.1715 16.4901 30.2027 16.0057 29.9918C15.5526 29.7965 15.0526 29.2887 14.8573 28.8355C14.6463 28.3355 14.6619 27.4996 14.8963 27.0152C15.2244 26.3512 16.0448 25.8199 16.7791 25.8121C16.951 25.8043 17.2791 25.859 17.5057 25.9293ZM35.6619 25.9605C37.1463 26.5152 37.5291 28.5152 36.3573 29.5699C35.9041 29.9762 35.5369 30.1246 34.9354 30.1246C33.7244 30.1324 32.8416 29.3121 32.7635 28.1168C32.7244 27.4215 32.9119 26.9215 33.4041 26.4371C34.0135 25.8355 34.8573 25.6559 35.6619 25.9605Z" fill="black"/>
<path d="M7.78662 15.5859C7.45068 15.7812 7.44287 15.8438 7.43506 17.8125V19.7109H6.49756C5.59912 19.7109 5.54443 19.7188 5.36475 19.9062C5.10693 20.1562 5.10693 20.5156 5.36475 20.7656L5.55225 20.9609H11.2866C16.9741 20.9609 17.0288 20.9609 17.2319 20.7969C17.521 20.5703 17.521 20.1016 17.2319 19.875C17.0288 19.7109 16.9507 19.7109 12.8569 19.7109H8.68506V17.8281V15.9453L8.4585 15.7188C8.21631 15.4766 8.03662 15.4453 7.78662 15.5859Z" fill="black"/>
<path d="M0.732114 16.5546C0.466489 16.7421 0.489927 17.2967 0.771177 17.5233C0.974302 17.6796 1.0368 17.6874 3.35711 17.6639L5.73211 17.6405L5.88055 17.453C6.08368 17.203 6.07586 16.8124 5.8493 16.6014C5.66961 16.4296 5.62274 16.4296 3.2868 16.4296C1.26336 16.4296 0.880552 16.4452 0.732114 16.5546Z" fill="black"/>
</svg>
