<svg width="41" height="41" viewBox="0 0 41 41" fill="none" xmlns="http://www.w3.org/2000/svg">
<path d="M18.7299 3.9771C15.894 4.35991 13.1206 5.53178 10.8237 7.30522C7.54245 9.84428 5.40182 13.4068 4.62057 17.6412C4.41745 18.7427 4.37057 21.3208 4.54245 22.563C5.87838 32.4849 15.5893 38.9224 25.2846 36.3052C27.2456 35.774 29.2299 34.7974 30.9331 33.5083C32.4018 32.4068 34.4253 30.1958 34.4253 29.7037C34.4253 29.3833 34.3003 29.1724 34.0659 29.0865C33.7143 28.9458 33.5112 29.0787 32.9643 29.7818C29.7924 33.8599 24.4721 36.1255 19.3628 35.563C15.8159 35.1802 12.5815 33.6412 10.0893 31.1568C7.72995 28.7896 6.2612 25.813 5.78463 22.4068C5.59713 21.024 5.66745 18.774 5.9487 17.4458C6.95651 12.6333 9.97995 8.71147 14.3081 6.62553C20.1831 3.78178 27.2299 4.99272 31.8081 9.62553L32.5112 10.3365H30.6518H28.7924L28.6049 10.5318C28.3471 10.7818 28.3471 11.1412 28.6049 11.3912L28.7924 11.5865H31.5346H34.2768L34.4643 11.3912L34.6596 11.2037V8.46147V5.71928L34.4643 5.53178C34.2143 5.27397 33.8549 5.27397 33.6049 5.53178L33.4096 5.71928V7.57866V9.43803L32.6909 8.72709C31.7221 7.77397 31.0503 7.22709 30.0581 6.56303C27.9643 5.18022 25.3862 4.24272 22.7846 3.93022C21.8706 3.82085 19.7065 3.84428 18.7299 3.9771Z" fill="black"/>
<path d="M29.1907 14.8357C27.4173 15.4763 26.9016 17.6638 28.2141 18.9685C28.7298 19.4841 29.1907 19.6716 29.9719 19.6638C30.5344 19.6638 30.6985 19.6326 31.0344 19.4607C31.6204 19.156 31.8704 18.9138 32.1673 18.367C32.4016 17.9216 32.4251 17.8123 32.4329 17.2107C32.4329 16.4295 32.2454 15.9685 31.7298 15.4529C31.0891 14.8123 29.9954 14.5466 29.1907 14.8357ZM30.4641 16.0701C31.2688 16.406 31.4641 17.4529 30.8391 18.0779C29.9641 18.9607 28.5266 18.1716 28.7532 16.9373C28.8938 16.2029 29.7532 15.7654 30.4641 16.0701Z" fill="black"/>
<path d="M9.85498 15.5312L9.65967 15.7188V20.3359V24.9531L9.85498 25.1406C9.97217 25.2656 10.1362 25.3359 10.2847 25.3359C10.4331 25.3359 10.5972 25.2656 10.7144 25.1406L10.9097 24.9531V20.3359V15.7188L10.7144 15.5312C10.5972 15.4062 10.4331 15.3359 10.2847 15.3359C10.1362 15.3359 9.97217 15.4062 9.85498 15.5312Z" fill="black"/>
<path d="M14.5503 15.4141C14.0581 15.5391 13.355 15.9609 13.0112 16.3281C12.8394 16.5156 12.5815 16.9062 12.4487 17.1953L12.1987 17.7188V20.3438V22.9609L12.4878 23.5547C12.8394 24.2656 13.2925 24.7031 14.019 25.0469C14.4956 25.2734 14.6128 25.2969 15.2847 25.2969C15.9565 25.2969 16.0737 25.2734 16.5503 25.0469C17.2769 24.7031 17.73 24.2656 18.0815 23.5547L18.3706 22.9609V20.3359V17.7109L18.0815 17.1172C17.5503 16.0547 16.6128 15.4219 15.4565 15.3672C15.1284 15.3516 14.7222 15.375 14.5503 15.4141ZM15.8628 16.6797C16.2925 16.8047 16.9409 17.4531 17.0659 17.8828C17.1987 18.3281 17.1987 22.3438 17.0659 22.7891C16.8628 23.4609 16.0034 24.0859 15.2847 24.0859C14.5659 24.0859 13.7065 23.4609 13.5034 22.7891C13.3706 22.3438 13.3706 18.3281 13.5034 17.8828C13.6206 17.4844 14.2769 16.8125 14.6597 16.6875C15.0347 16.5703 15.48 16.5703 15.8628 16.6797Z" fill="black"/>
<path d="M22.0503 15.4141C21.5581 15.5391 20.855 15.9609 20.5112 16.3281C20.3394 16.5156 20.0815 16.9062 19.9487 17.1953L19.6987 17.7188V20.3438V22.9609L19.9878 23.5547C20.3394 24.2656 20.7925 24.7031 21.519 25.0469C21.9956 25.2734 22.1128 25.2969 22.7847 25.2969C23.4565 25.2969 23.5737 25.2734 24.0503 25.0469C24.7769 24.7031 25.23 24.2656 25.5815 23.5547L25.8706 22.9609V20.3359V17.7109L25.5815 17.1172C25.0503 16.0547 24.1128 15.4219 22.9565 15.3672C22.6284 15.3516 22.2222 15.375 22.0503 15.4141ZM23.3628 16.6797C23.7925 16.8047 24.4409 17.4531 24.5659 17.8828C24.6284 18.1016 24.6597 18.8906 24.6597 20.3359C24.6597 21.7812 24.6284 22.5703 24.5659 22.7891C24.3628 23.4609 23.5034 24.0859 22.7847 24.0859C22.0659 24.0859 21.2065 23.4609 21.0034 22.7891C20.8706 22.3438 20.8706 18.3281 21.0034 17.8828C21.1206 17.4844 21.7769 16.8125 22.1597 16.6875C22.5347 16.5703 22.98 16.5703 23.3628 16.6797Z" fill="black"/>
<path d="M37.1909 15.4531C37.0659 15.5078 34.9722 17.5547 32.5347 20C28.48 24.0625 28.0972 24.4609 28.0972 24.6953C28.0972 25.0391 28.394 25.3359 28.7378 25.3359C28.9722 25.3359 29.3784 24.9531 33.4644 20.8672C35.9253 18.4062 37.9722 16.3047 38.0112 16.1953C38.1831 15.7031 37.6753 15.2422 37.1909 15.4531Z" fill="black"/>
<path d="M35.4409 21.0862C34.3315 21.4925 33.6518 22.5159 33.7378 23.6409C33.9409 26.1253 37.1987 26.8206 38.4018 24.6331C38.6596 24.1643 38.6831 24.0784 38.6831 23.4612C38.6831 22.8518 38.6596 22.7503 38.4175 22.305C37.9643 21.4768 37.2925 21.0472 36.3471 20.9925C35.9565 20.969 35.6909 21.0003 35.4409 21.0862ZM36.7143 22.3206C37.519 22.6565 37.7143 23.7034 37.0893 24.3284C36.5815 24.8362 35.8628 24.8362 35.355 24.3284C34.3862 23.3675 35.4565 21.7893 36.7143 22.3206Z" fill="black"/>
</svg>
