<svg width="41" height="41" viewBox="0 0 41 41" fill="none" xmlns="http://www.w3.org/2000/svg">
<path d="M12.5283 4.40625C8.4502 6.64062 5.03613 8.53906 4.9502 8.625C4.79395 8.77344 4.79395 8.88281 4.79395 14.9297C4.79395 21.5625 4.80176 21.7422 5.22363 23.8516C6.48145 30.1328 10.5674 35.625 16.2393 38.6406C17.2783 39.1953 19.8799 40.3359 20.0986 40.3359C20.3564 40.3281 23.7471 38.8359 24.708 38.2969C26.6924 37.1875 28.1689 36.0547 29.7549 34.4297C33.0439 31.0625 35.0361 26.9922 35.7393 22.2109C35.8564 21.4375 35.8799 20.4297 35.9033 15.0859L35.9346 8.86719L35.7158 8.63281C35.4424 8.34375 20.4111 0.335938 20.1377 0.335938C20.0361 0.335938 16.6143 2.16406 12.5283 4.40625ZM27.333 5.75781L34.4033 9.53125V15.3047C34.3955 20.8984 34.3955 21.1094 34.2236 22.2031C33.5439 26.5234 31.7314 30.2266 28.8252 33.2422C26.6924 35.4531 24.7158 36.7812 21.4658 38.1797L20.0908 38.7734L18.9658 38.2734C16.958 37.3906 15.7549 36.7188 14.4268 35.7266C10.3252 32.6719 7.48145 28.0938 6.59863 23.1484C6.30176 21.4609 6.27832 20.9531 6.27832 15.1953V9.53906L13.1533 5.76562C16.9346 3.6875 20.083 1.98438 20.1455 1.98438C20.208 1.98438 23.4424 3.67969 27.333 5.75781Z" fill="black"/>
<path d="M26.1455 16.6097C25.7002 16.969 23.7158 18.5862 21.7236 20.2034L18.1064 23.1487L16.458 21.219C14.4814 18.8909 14.4502 18.8519 14.083 18.8519C13.708 18.8519 13.5127 18.969 13.3799 19.2894C13.2861 19.5159 13.2861 19.594 13.3799 19.805C13.5205 20.1487 17.4424 24.719 17.708 24.8597C17.8486 24.9378 17.9814 24.9456 18.1689 24.8987C18.4346 24.8284 27.7471 17.2972 27.8877 17.0472C28.1299 16.5862 27.7471 15.9612 27.2236 15.9612C26.9893 15.9612 26.8096 16.0706 26.1455 16.6097Z" fill="black"/>
</svg>
